<svg xmlns="http://www.w3.org/2000/svg" viewBox="0 0 64 64" role="img" aria-labelledby="title desc">
  <title id="title">Aegis mark</title>
  <desc id="desc">A clean shield mark for the Aegis utility toolkit.</desc>
  <defs>
    <linearGradient id="aegis-fill" x1="13" x2="52" y1="8" y2="56" gradientUnits="userSpaceOnUse">
      <stop offset="0" stop-color="#f0d99a"/>
      <stop offset="0.58" stop-color="#c9a85b"/>
      <stop offset="1" stop-color="#6e8799"/>
    </linearGradient>
    <linearGradient id="aegis-bg" x1="8" x2="56" y1="5" y2="59" gradientUnits="userSpaceOnUse">
      <stop offset="0" stop-color="#1b222d"/>
      <stop offset="1" stop-color="#080b10"/>
    </linearGradient>
  </defs>
  <rect width="64" height="64" rx="18" fill="url(#aegis-bg)"/>
  <path d="M32 8.5 49.5 15.5v14.3c0 10.1-6.7 19.7-17.5 25.7-10.8-6-17.5-15.6-17.5-25.7V15.5L32 8.5Z" fill="url(#aegis-fill)" opacity=".96"/>
  <path d="M32 14.7 44.1 19.5v10c0 7.2-4.5 13.9-12.1 18.6-7.6-4.7-12.1-11.4-12.1-18.6v-10L32 14.7Z" fill="#080b10" opacity=".82"/>
  <path d="M24.2 33.1h15.6M27.2 25.3h9.6M28.9 40.8h6.2" fill="none" stroke="#f3f5f7" stroke-linecap="round" stroke-width="3"/>
</svg>
